<svg width="36" height="36" viewBox="0 0 36 36" fill="none" xmlns="http://www.w3.org/2000/svg">
<path d="M9.36053 20.1681L3.50303 25.2426C2.82803 25.8276 2.83103 26.9001 3.51203 27.5796L7.69253 31.7526C8.93603 32.9946 10.7825 33.3501 12.263 32.6316C21.1505 28.3392 28.3282 21.1716 32.633 12.2901C33.3515 10.8111 32.996 8.96613 31.7525 7.72413L27.533 3.51213C26.8505 2.82963 25.772 2.82813 25.187 3.50913L20.1395 9.38913C19.6115 10.0041 19.6805 10.9596 20.2985 11.5761L22.3475 13.6221C22.4573 13.7269 22.5297 13.8648 22.5535 14.0146C22.5774 14.1645 22.5514 14.318 22.4795 14.4516C20.5537 17.796 17.7759 20.5701 14.429 22.4916C14.2952 22.5636 14.1414 22.5896 13.9913 22.5658C13.8412 22.542 13.703 22.4695 13.598 22.3596L11.5565 20.3196C10.9355 19.7016 9.97553 19.6341 9.35903 20.1681H9.36053Z" stroke="white" stroke-width="2" stroke-linecap="round" stroke-linejoin="round"/>
</svg>
